<?xml version="1.0" encoding="iso-8859-1"?>
<!-- Generator: Adobe Illustrator 16.0.0, SVG Export Plug-In . SVG Version: 6.00 Build 0)  -->
<!DOCTYPE svg PUBLIC "-//W3C//DTD SVG 1.1//EN" "http://www.w3.org/Graphics/SVG/1.1/DTD/svg11.dtd">
<svg version="1.1" id="Capa_1" xmlns="http://www.w3.org/2000/svg" xmlns:xlink="http://www.w3.org/1999/xlink" x="0px" y="0px"
	 width="406.191px" height="406.19px" viewBox="0 0 406.191 406.19" style="enable-background:new 0 0 406.191 406.19;"
	 xml:space="preserve">
<g>
	<g>
		<g id="Layer_5_64_">
			<g>
				<path d="M73.574,272.369c-2.75,0-5,2.25-5,5v123.818c0,2.75,2.25,5,5,5h111.053c2.75,0,5.227-2.236,5.503-4.975l3.032-40.92
					c0.33-2.729,3.975-2.744,4.428-0.032l4.344,40.985c0.424,2.717,3.021,4.939,5.771,4.939h26.581c2.75,0,5.206-2.239,5.457-4.979
					l4.792-64.237c0.312-2.729,3.943-2.75,4.408-0.038l7.467,64.312c0.404,2.719,2.986,4.943,5.736,4.943h13.797
					c2.75,0,5.324-2.227,5.721-4.946l1.836-23.647c0.722-2.651,4.092-2.713,5.045-0.133l3.629,23.848
					c0.601,2.686,3.339,4.882,6.089,4.882h34.354c2.75,0,5-2.25,5-5V277.37c0-2.75-2.25-5-5-5L73.574,272.369L73.574,272.369z"/>
				<path d="M332.617,255.48c2.75,0,5-2.25,5-5v-52.938c0-2.75-2.25-5-5-5H73.574c-2.75,0-5,2.25-5,5v52.938c0,2.75,2.25,5,5,5
					H332.617z"/>
				<path d="M234.406,0h-62.621c-5.922,0-10.768,4.846-10.768,10.77l8.775,154.117c0,5.922,4.846,10.768,10.769,10.768h45.068
					c5.924,0,10.771-4.846,10.771-10.768l8.774-154.117C245.173,4.846,240.327,0,234.406,0z"/>
			</g>
		</g>
	</g>
</g>
<g>
</g>
<g>
</g>
<g>
</g>
<g>
</g>
<g>
</g>
<g>
</g>
<g>
</g>
<g>
</g>
<g>
</g>
<g>
</g>
<g>
</g>
<g>
</g>
<g>
</g>
<g>
</g>
<g>
</g>
</svg>
